<svg width="1280" height="720" viewBox="0 0 1280 720" fill="none" xmlns="http://www.w3.org/2000/svg">
  <rect width="1280" height="720" fill="#07111F"/>
  <rect width="1280" height="720" fill="url(#bg)"/>
  <rect x="56" y="40" width="1168" height="56" rx="28" fill="#08182C" stroke="#1D4457"/>
  <rect x="84" y="55" width="40" height="28" rx="10" fill="url(#brand)"/>
  <text x="142" y="74" fill="#EDF7F3" font-size="22" font-family="Arial, sans-serif" font-weight="700">Fluxa API</text>
  <text x="1046" y="74" fill="#A7C1BB" font-size="16" font-family="Arial, sans-serif">Produto</text>
  <text x="1120" y="74" fill="#A7C1BB" font-size="16" font-family="Arial, sans-serif">Documentacao</text>
  <rect x="78" y="132" width="694" height="472" rx="28" fill="#0D213B" stroke="#1D4457"/>
  <text x="114" y="184" fill="#80E2D0" font-size="15" font-family="Arial, sans-serif" font-weight="700" letter-spacing="3">FLUXA API</text>
  <text x="114" y="270" fill="#EDF7F3" font-size="68" font-family="Arial, sans-serif" font-weight="700">Uma API projetada</text>
  <text x="114" y="340" fill="#EDF7F3" font-size="68" font-family="Arial, sans-serif" font-weight="700">para operacao real.</text>
  <text x="114" y="396" fill="#A7C1BB" font-size="24" font-family="Arial, sans-serif">Plataforma para autenticacao, tarefas, administracao</text>
  <text x="114" y="430" fill="#A7C1BB" font-size="24" font-family="Arial, sans-serif">e documentacao integrada com identidade de produto.</text>
  <rect x="114" y="470" width="226" height="52" rx="26" fill="#80E2D0"/>
  <text x="149" y="503" fill="#05202D" font-size="20" font-family="Arial, sans-serif" font-weight="700">Explorar documentacao</text>
  <rect x="356" y="470" width="196" height="52" rx="26" fill="#1A2638" stroke="#4F6675"/>
  <text x="410" y="503" fill="#EDF7F3" font-size="20" font-family="Arial, sans-serif" font-weight="700">Abrir workspace</text>
  <rect x="114" y="548" width="190" height="76" rx="20" fill="#112944"/>
  <rect x="324" y="548" width="190" height="76" rx="20" fill="#112944"/>
  <rect x="534" y="548" width="190" height="76" rx="20" fill="#112944"/>
  <text x="134" y="576" fill="#EDF7F3" font-size="18" font-family="Arial, sans-serif" font-weight="700">JWT e Spring Security</text>
  <text x="134" y="603" fill="#A7C1BB" font-size="14" font-family="Arial, sans-serif">Autenticacao e perfis</text>
  <text x="344" y="576" fill="#EDF7F3" font-size="18" font-family="Arial, sans-serif" font-weight="700">Workspace integrado</text>
  <text x="344" y="603" fill="#A7C1BB" font-size="14" font-family="Arial, sans-serif">Painel de tarefas e login</text>
  <text x="554" y="576" fill="#EDF7F3" font-size="18" font-family="Arial, sans-serif" font-weight="700">Docs em tempo real</text>
  <text x="554" y="603" fill="#A7C1BB" font-size="14" font-family="Arial, sans-serif">OpenAPI consumido ao vivo</text>
  <rect x="802" y="132" width="400" height="472" rx="28" fill="#0D213B" stroke="#1D4457"/>
  <rect x="832" y="162" width="150" height="36" rx="18" fill="#102C3B" stroke="#2F7E78"/>
  <text x="858" y="185" fill="#80E2D0" font-size="16" font-family="Arial, sans-serif" font-weight="700">ao vivo em localhost:8080</text>
  <rect x="996" y="162" width="146" height="36" rx="18" fill="#12233A" stroke="#4F6675"/>
  <text x="1029" y="185" fill="#EDF7F3" font-size="16" font-family="Arial, sans-serif">design system Fluxa</text>
  <rect x="832" y="228" width="340" height="88" rx="20" fill="#112944"/>
  <rect x="832" y="332" width="340" height="88" rx="20" fill="#112944"/>
  <rect x="832" y="436" width="340" height="88" rx="20" fill="#112944"/>
  <text x="856" y="258" fill="#A7C1BB" font-size="14" font-family="Arial, sans-serif">Fluxo principal</text>
  <text x="856" y="289" fill="#EDF7F3" font-size="28" font-family="Arial, sans-serif" font-weight="700">Cadastro, login e tarefas</text>
  <text x="856" y="362" fill="#A7C1BB" font-size="14" font-family="Arial, sans-serif">Area administrativa</text>
  <text x="856" y="393" fill="#EDF7F3" font-size="28" font-family="Arial, sans-serif" font-weight="700">Usuarios e tarefas</text>
  <text x="856" y="466" fill="#A7C1BB" font-size="14" font-family="Arial, sans-serif">Portal tecnico</text>
  <text x="856" y="497" fill="#EDF7F3" font-size="28" font-family="Arial, sans-serif" font-weight="700">OpenAPI e exemplos</text>
  <rect x="832" y="548" width="340" height="56" rx="18" fill="#09121F" stroke="#264356"/>
  <text x="855" y="581" fill="#D4FFF7" font-size="20" font-family="Courier New, monospace">POST /autenticacao/login</text>
  <defs>
    <linearGradient id="bg" x1="0" y1="0" x2="1280" y2="720" gradientUnits="userSpaceOnUse">
      <stop stop-color="#0A2530"/>
      <stop offset="0.48" stop-color="#08172B"/>
      <stop offset="1" stop-color="#06111E"/>
    </linearGradient>
    <linearGradient id="brand" x1="84" y1="55" x2="124" y2="83" gradientUnits="userSpaceOnUse">
      <stop stop-color="#80E2D0"/>
      <stop offset="1" stop-color="#FFCB70"/>
    </linearGradient>
  </defs>
</svg>
